<mxfile host="app.diagrams.net" modified="2023-10-12T22:07:46.475Z" agent="Mozilla/5.0 (Windows NT 10.0; Win64; x64) AppleWebKit/537.36 (KHTML, like Gecko) Chrome/117.0.0.0 Safari/537.36 Edg/117.0.2045.60" etag="6vnlo5LVwzzbdwtadRoX" version="21.6.5" type="github">
  <diagram id="C5RBs43oDa-KdzZeNtuy" name="Page-1">
    <mxGraphModel dx="1310" dy="778" grid="1" gridSize="10" guides="1" tooltips="1" connect="1" arrows="1" fold="1" page="1" pageScale="1" pageWidth="827" pageHeight="1169" math="0" shadow="0">
      <root>
        <mxCell id="WIyWlLk6GJQsqaUBKTNV-0" />
        <mxCell id="WIyWlLk6GJQsqaUBKTNV-1" parent="WIyWlLk6GJQsqaUBKTNV-0" />
        <mxCell id="-rV18isY-9AnJnj3Vz96-16" value="" style="edgeStyle=orthogonalEdgeStyle;rounded=0;orthogonalLoop=1;jettySize=auto;html=1;" edge="1" parent="WIyWlLk6GJQsqaUBKTNV-1" source="-rV18isY-9AnJnj3Vz96-0" target="-rV18isY-9AnJnj3Vz96-7">
          <mxGeometry relative="1" as="geometry" />
        </mxCell>
        <mxCell id="-rV18isY-9AnJnj3Vz96-0" value="Water RO" style="rounded=0;whiteSpace=wrap;html=1;" vertex="1" parent="WIyWlLk6GJQsqaUBKTNV-1">
          <mxGeometry x="40" y="450" width="80" height="50" as="geometry" />
        </mxCell>
        <mxCell id="-rV18isY-9AnJnj3Vz96-19" value="" style="edgeStyle=orthogonalEdgeStyle;rounded=0;orthogonalLoop=1;jettySize=auto;html=1;" edge="1" parent="WIyWlLk6GJQsqaUBKTNV-1" source="-rV18isY-9AnJnj3Vz96-5" target="-rV18isY-9AnJnj3Vz96-9">
          <mxGeometry relative="1" as="geometry" />
        </mxCell>
        <mxCell id="-rV18isY-9AnJnj3Vz96-5" value="Bicarbonate Buffer Tank" style="rounded=0;whiteSpace=wrap;html=1;" vertex="1" parent="WIyWlLk6GJQsqaUBKTNV-1">
          <mxGeometry x="460" y="450" width="80" height="50" as="geometry" />
        </mxCell>
        <mxCell id="-rV18isY-9AnJnj3Vz96-17" value="" style="edgeStyle=orthogonalEdgeStyle;rounded=0;orthogonalLoop=1;jettySize=auto;html=1;" edge="1" parent="WIyWlLk6GJQsqaUBKTNV-1" source="-rV18isY-9AnJnj3Vz96-7" target="-rV18isY-9AnJnj3Vz96-8">
          <mxGeometry relative="1" as="geometry" />
        </mxCell>
        <mxCell id="-rV18isY-9AnJnj3Vz96-7" value="Pump 1" style="rounded=0;whiteSpace=wrap;html=1;" vertex="1" parent="WIyWlLk6GJQsqaUBKTNV-1">
          <mxGeometry x="180" y="450" width="80" height="50" as="geometry" />
        </mxCell>
        <mxCell id="-rV18isY-9AnJnj3Vz96-18" value="" style="edgeStyle=orthogonalEdgeStyle;rounded=0;orthogonalLoop=1;jettySize=auto;html=1;" edge="1" parent="WIyWlLk6GJQsqaUBKTNV-1" source="-rV18isY-9AnJnj3Vz96-8" target="-rV18isY-9AnJnj3Vz96-5">
          <mxGeometry relative="1" as="geometry" />
        </mxCell>
        <mxCell id="-rV18isY-9AnJnj3Vz96-8" value="Dry Bicarbonate" style="rounded=0;whiteSpace=wrap;html=1;" vertex="1" parent="WIyWlLk6GJQsqaUBKTNV-1">
          <mxGeometry x="320" y="450" width="80" height="50" as="geometry" />
        </mxCell>
        <mxCell id="-rV18isY-9AnJnj3Vz96-23" style="edgeStyle=orthogonalEdgeStyle;rounded=0;orthogonalLoop=1;jettySize=auto;html=1;entryX=0.5;entryY=0;entryDx=0;entryDy=0;" edge="1" parent="WIyWlLk6GJQsqaUBKTNV-1" source="-rV18isY-9AnJnj3Vz96-9" target="-rV18isY-9AnJnj3Vz96-22">
          <mxGeometry relative="1" as="geometry" />
        </mxCell>
        <mxCell id="-rV18isY-9AnJnj3Vz96-9" value="Vave 1" style="rounded=0;whiteSpace=wrap;html=1;" vertex="1" parent="WIyWlLk6GJQsqaUBKTNV-1">
          <mxGeometry x="600" y="450" width="80" height="50" as="geometry" />
        </mxCell>
        <mxCell id="-rV18isY-9AnJnj3Vz96-20" value="" style="edgeStyle=orthogonalEdgeStyle;rounded=0;orthogonalLoop=1;jettySize=auto;html=1;" edge="1" parent="WIyWlLk6GJQsqaUBKTNV-1" source="-rV18isY-9AnJnj3Vz96-10" target="-rV18isY-9AnJnj3Vz96-11">
          <mxGeometry relative="1" as="geometry" />
        </mxCell>
        <mxCell id="-rV18isY-9AnJnj3Vz96-51" style="edgeStyle=orthogonalEdgeStyle;rounded=0;orthogonalLoop=1;jettySize=auto;html=1;" edge="1" parent="WIyWlLk6GJQsqaUBKTNV-1" target="-rV18isY-9AnJnj3Vz96-10">
          <mxGeometry relative="1" as="geometry">
            <mxPoint x="389" y="575" as="sourcePoint" />
          </mxGeometry>
        </mxCell>
        <mxCell id="-rV18isY-9AnJnj3Vz96-54" value="WATER" style="edgeLabel;html=1;align=center;verticalAlign=middle;resizable=0;points=[];" vertex="1" connectable="0" parent="-rV18isY-9AnJnj3Vz96-51">
          <mxGeometry x="0.1892" y="-4" relative="1" as="geometry">
            <mxPoint x="-70" y="-4" as="offset" />
          </mxGeometry>
        </mxCell>
        <mxCell id="-rV18isY-9AnJnj3Vz96-10" value="Vave 2" style="rounded=0;whiteSpace=wrap;html=1;" vertex="1" parent="WIyWlLk6GJQsqaUBKTNV-1">
          <mxGeometry x="460" y="550" width="80" height="50" as="geometry" />
        </mxCell>
        <mxCell id="-rV18isY-9AnJnj3Vz96-25" value="" style="edgeStyle=orthogonalEdgeStyle;rounded=0;orthogonalLoop=1;jettySize=auto;html=1;" edge="1" parent="WIyWlLk6GJQsqaUBKTNV-1" source="-rV18isY-9AnJnj3Vz96-11" target="-rV18isY-9AnJnj3Vz96-22">
          <mxGeometry relative="1" as="geometry" />
        </mxCell>
        <mxCell id="-rV18isY-9AnJnj3Vz96-11" value="Pump 2" style="rounded=0;whiteSpace=wrap;html=1;" vertex="1" parent="WIyWlLk6GJQsqaUBKTNV-1">
          <mxGeometry x="600" y="550" width="80" height="50" as="geometry" />
        </mxCell>
        <mxCell id="-rV18isY-9AnJnj3Vz96-21" value="" style="edgeStyle=orthogonalEdgeStyle;rounded=0;orthogonalLoop=1;jettySize=auto;html=1;" edge="1" parent="WIyWlLk6GJQsqaUBKTNV-1" source="-rV18isY-9AnJnj3Vz96-12" target="-rV18isY-9AnJnj3Vz96-13">
          <mxGeometry relative="1" as="geometry" />
        </mxCell>
        <mxCell id="-rV18isY-9AnJnj3Vz96-52" style="edgeStyle=orthogonalEdgeStyle;rounded=0;orthogonalLoop=1;jettySize=auto;html=1;" edge="1" parent="WIyWlLk6GJQsqaUBKTNV-1" target="-rV18isY-9AnJnj3Vz96-12">
          <mxGeometry relative="1" as="geometry">
            <mxPoint x="390" y="675" as="sourcePoint" />
          </mxGeometry>
        </mxCell>
        <mxCell id="-rV18isY-9AnJnj3Vz96-53" value="ACID" style="edgeLabel;html=1;align=center;verticalAlign=middle;resizable=0;points=[];" vertex="1" connectable="0" parent="-rV18isY-9AnJnj3Vz96-52">
          <mxGeometry x="0.1009" y="-3" relative="1" as="geometry">
            <mxPoint x="-58" y="-3" as="offset" />
          </mxGeometry>
        </mxCell>
        <mxCell id="-rV18isY-9AnJnj3Vz96-12" value="Vave 3" style="rounded=0;whiteSpace=wrap;html=1;" vertex="1" parent="WIyWlLk6GJQsqaUBKTNV-1">
          <mxGeometry x="460" y="650" width="80" height="50" as="geometry" />
        </mxCell>
        <mxCell id="-rV18isY-9AnJnj3Vz96-24" style="edgeStyle=orthogonalEdgeStyle;rounded=0;orthogonalLoop=1;jettySize=auto;html=1;entryX=0.5;entryY=1;entryDx=0;entryDy=0;" edge="1" parent="WIyWlLk6GJQsqaUBKTNV-1" source="-rV18isY-9AnJnj3Vz96-13" target="-rV18isY-9AnJnj3Vz96-22">
          <mxGeometry relative="1" as="geometry" />
        </mxCell>
        <mxCell id="-rV18isY-9AnJnj3Vz96-13" value="Pump 3" style="rounded=0;whiteSpace=wrap;html=1;" vertex="1" parent="WIyWlLk6GJQsqaUBKTNV-1">
          <mxGeometry x="600" y="650" width="80" height="50" as="geometry" />
        </mxCell>
        <mxCell id="-rV18isY-9AnJnj3Vz96-22" value="BTD" style="rounded=0;whiteSpace=wrap;html=1;" vertex="1" parent="WIyWlLk6GJQsqaUBKTNV-1">
          <mxGeometry x="860" y="545" width="120" height="60" as="geometry" />
        </mxCell>
        <mxCell id="-rV18isY-9AnJnj3Vz96-46" style="edgeStyle=orthogonalEdgeStyle;rounded=0;orthogonalLoop=1;jettySize=auto;html=1;entryX=0.5;entryY=0;entryDx=0;entryDy=0;dashed=1;dashPattern=12 12;" edge="1" parent="WIyWlLk6GJQsqaUBKTNV-1" source="-rV18isY-9AnJnj3Vz96-27" target="-rV18isY-9AnJnj3Vz96-11">
          <mxGeometry relative="1" as="geometry">
            <Array as="points">
              <mxPoint x="290" y="255" />
              <mxPoint x="290" y="530" />
              <mxPoint x="640" y="530" />
            </Array>
          </mxGeometry>
        </mxCell>
        <mxCell id="-rV18isY-9AnJnj3Vz96-45" style="edgeStyle=orthogonalEdgeStyle;rounded=0;orthogonalLoop=1;jettySize=auto;html=1;exitX=0;exitY=0.25;exitDx=0;exitDy=0;entryX=0.5;entryY=0;entryDx=0;entryDy=0;dashed=1;dashPattern=12 12;" edge="1" parent="WIyWlLk6GJQsqaUBKTNV-1" source="-rV18isY-9AnJnj3Vz96-27" target="-rV18isY-9AnJnj3Vz96-7">
          <mxGeometry relative="1" as="geometry" />
        </mxCell>
        <mxCell id="-rV18isY-9AnJnj3Vz96-47" style="edgeStyle=orthogonalEdgeStyle;rounded=0;orthogonalLoop=1;jettySize=auto;html=1;exitX=0;exitY=0.75;exitDx=0;exitDy=0;dashed=1;dashPattern=12 12;" edge="1" parent="WIyWlLk6GJQsqaUBKTNV-1" source="-rV18isY-9AnJnj3Vz96-27" target="-rV18isY-9AnJnj3Vz96-13">
          <mxGeometry relative="1" as="geometry">
            <Array as="points">
              <mxPoint x="410" y="287" />
              <mxPoint x="410" y="620" />
              <mxPoint x="640" y="620" />
            </Array>
          </mxGeometry>
        </mxCell>
        <mxCell id="-rV18isY-9AnJnj3Vz96-49" style="edgeStyle=orthogonalEdgeStyle;rounded=0;orthogonalLoop=1;jettySize=auto;html=1;exitX=0.75;exitY=1;exitDx=0;exitDy=0;entryX=0;entryY=0.5;entryDx=0;entryDy=0;dashed=1;dashPattern=12 12;" edge="1" parent="WIyWlLk6GJQsqaUBKTNV-1">
          <mxGeometry relative="1" as="geometry">
            <mxPoint x="567.5" y="285" as="sourcePoint" />
            <mxPoint x="500" y="550" as="targetPoint" />
            <Array as="points">
              <mxPoint x="420" y="285" />
              <mxPoint x="420" y="510" />
              <mxPoint x="500" y="510" />
            </Array>
          </mxGeometry>
        </mxCell>
        <mxCell id="-rV18isY-9AnJnj3Vz96-50" style="edgeStyle=orthogonalEdgeStyle;rounded=0;orthogonalLoop=1;jettySize=auto;html=1;entryX=0;entryY=0.5;entryDx=0;entryDy=0;dashed=1;dashPattern=12 12;" edge="1" parent="WIyWlLk6GJQsqaUBKTNV-1">
          <mxGeometry relative="1" as="geometry">
            <mxPoint x="540" y="285" as="sourcePoint" />
            <mxPoint x="505" y="650" as="targetPoint" />
            <Array as="points">
              <mxPoint x="540" y="395" />
              <mxPoint x="440" y="395" />
              <mxPoint x="440" y="640" />
              <mxPoint x="505" y="640" />
            </Array>
          </mxGeometry>
        </mxCell>
        <mxCell id="-rV18isY-9AnJnj3Vz96-27" value="MIkrokontroller" style="whiteSpace=wrap;html=1;aspect=fixed;" vertex="1" parent="WIyWlLk6GJQsqaUBKTNV-1">
          <mxGeometry x="430" y="180" width="130" height="130" as="geometry" />
        </mxCell>
        <mxCell id="-rV18isY-9AnJnj3Vz96-38" style="edgeStyle=orthogonalEdgeStyle;rounded=0;orthogonalLoop=1;jettySize=auto;html=1;dashed=1;" edge="1" parent="WIyWlLk6GJQsqaUBKTNV-1" target="-rV18isY-9AnJnj3Vz96-28">
          <mxGeometry relative="1" as="geometry">
            <mxPoint x="745" y="674" as="sourcePoint" />
          </mxGeometry>
        </mxCell>
        <mxCell id="-rV18isY-9AnJnj3Vz96-44" style="edgeStyle=orthogonalEdgeStyle;rounded=0;orthogonalLoop=1;jettySize=auto;html=1;entryX=1;entryY=0.75;entryDx=0;entryDy=0;dashed=1;dashPattern=12 12;" edge="1" parent="WIyWlLk6GJQsqaUBKTNV-1" source="-rV18isY-9AnJnj3Vz96-28" target="-rV18isY-9AnJnj3Vz96-27">
          <mxGeometry relative="1" as="geometry">
            <Array as="points">
              <mxPoint x="840" y="740" />
              <mxPoint x="840" y="288" />
            </Array>
          </mxGeometry>
        </mxCell>
        <mxCell id="-rV18isY-9AnJnj3Vz96-28" value="Flow Rate Sensor" style="rounded=0;whiteSpace=wrap;html=1;" vertex="1" parent="WIyWlLk6GJQsqaUBKTNV-1">
          <mxGeometry x="710" y="720" width="70" height="40" as="geometry" />
        </mxCell>
        <mxCell id="-rV18isY-9AnJnj3Vz96-37" style="edgeStyle=orthogonalEdgeStyle;rounded=0;orthogonalLoop=1;jettySize=auto;html=1;dashed=1;" edge="1" parent="WIyWlLk6GJQsqaUBKTNV-1" target="-rV18isY-9AnJnj3Vz96-29">
          <mxGeometry relative="1" as="geometry">
            <mxPoint x="745" y="576" as="sourcePoint" />
          </mxGeometry>
        </mxCell>
        <mxCell id="-rV18isY-9AnJnj3Vz96-43" style="edgeStyle=orthogonalEdgeStyle;rounded=0;orthogonalLoop=1;jettySize=auto;html=1;entryX=1;entryY=0.5;entryDx=0;entryDy=0;dashed=1;dashPattern=12 12;" edge="1" parent="WIyWlLk6GJQsqaUBKTNV-1" source="-rV18isY-9AnJnj3Vz96-29" target="-rV18isY-9AnJnj3Vz96-27">
          <mxGeometry relative="1" as="geometry">
            <Array as="points">
              <mxPoint x="820" y="625" />
              <mxPoint x="820" y="255" />
            </Array>
          </mxGeometry>
        </mxCell>
        <mxCell id="-rV18isY-9AnJnj3Vz96-29" value="Flow Rate Sensor" style="rounded=0;whiteSpace=wrap;html=1;" vertex="1" parent="WIyWlLk6GJQsqaUBKTNV-1">
          <mxGeometry x="710" y="605" width="70" height="40" as="geometry" />
        </mxCell>
        <mxCell id="-rV18isY-9AnJnj3Vz96-34" style="edgeStyle=orthogonalEdgeStyle;rounded=0;orthogonalLoop=1;jettySize=auto;html=1;dashed=1;" edge="1" parent="WIyWlLk6GJQsqaUBKTNV-1" target="-rV18isY-9AnJnj3Vz96-30">
          <mxGeometry relative="1" as="geometry">
            <mxPoint x="745" y="476" as="sourcePoint" />
          </mxGeometry>
        </mxCell>
        <mxCell id="-rV18isY-9AnJnj3Vz96-42" style="edgeStyle=orthogonalEdgeStyle;rounded=0;orthogonalLoop=1;jettySize=auto;html=1;exitX=1;exitY=0.5;exitDx=0;exitDy=0;entryX=1;entryY=0.25;entryDx=0;entryDy=0;dashed=1;dashPattern=12 12;" edge="1" parent="WIyWlLk6GJQsqaUBKTNV-1" source="-rV18isY-9AnJnj3Vz96-30" target="-rV18isY-9AnJnj3Vz96-27">
          <mxGeometry relative="1" as="geometry" />
        </mxCell>
        <mxCell id="-rV18isY-9AnJnj3Vz96-30" value="Flow Rate Sensor" style="rounded=0;whiteSpace=wrap;html=1;" vertex="1" parent="WIyWlLk6GJQsqaUBKTNV-1">
          <mxGeometry x="710" y="510" width="70" height="40" as="geometry" />
        </mxCell>
        <mxCell id="-rV18isY-9AnJnj3Vz96-58" value="" style="endArrow=none;html=1;rounded=0;" edge="1" parent="WIyWlLk6GJQsqaUBKTNV-1">
          <mxGeometry width="50" height="50" relative="1" as="geometry">
            <mxPoint x="70" y="585" as="sourcePoint" />
            <mxPoint x="150" y="585" as="targetPoint" />
          </mxGeometry>
        </mxCell>
        <mxCell id="-rV18isY-9AnJnj3Vz96-59" value="Selang" style="edgeLabel;html=1;align=center;verticalAlign=middle;resizable=0;points=[];" vertex="1" connectable="0" parent="-rV18isY-9AnJnj3Vz96-58">
          <mxGeometry x="0.3886" y="2" relative="1" as="geometry">
            <mxPoint x="-85" y="2" as="offset" />
          </mxGeometry>
        </mxCell>
        <mxCell id="-rV18isY-9AnJnj3Vz96-60" value="" style="endArrow=none;dashed=1;html=1;strokeWidth=2;rounded=0;" edge="1" parent="WIyWlLk6GJQsqaUBKTNV-1">
          <mxGeometry width="50" height="50" relative="1" as="geometry">
            <mxPoint x="70" y="620" as="sourcePoint" />
            <mxPoint x="150" y="620" as="targetPoint" />
          </mxGeometry>
        </mxCell>
        <mxCell id="-rV18isY-9AnJnj3Vz96-61" value="Kabel" style="edgeLabel;html=1;align=center;verticalAlign=middle;resizable=0;points=[];" vertex="1" connectable="0" parent="-rV18isY-9AnJnj3Vz96-60">
          <mxGeometry x="-0.6495" y="2" relative="1" as="geometry">
            <mxPoint x="-44" as="offset" />
          </mxGeometry>
        </mxCell>
      </root>
    </mxGraphModel>
  </diagram>
</mxfile>
